<?xml version="1.0" encoding="UTF-8" standalone="no" ?>
<svg xmlns:dc="http://purl.org/dc/elements/1.1/" xmlns:cc="http://creativecommons.org/ns#" xmlns:rdf="http://www.w3.org/1999/02/22-rdf-syntax-ns#" xmlns:svg="http://www.w3.org/2000/svg" xmlns="http://www.w3.org/2000/svg" xmlns:sodipodi="http://sodipodi.sourceforge.net/DTD/sodipodi-0.dtd" xmlns:inkscape="http://www.inkscape.org/namespaces/inkscape" width="16" height="16" viewBox="0 0 160 160" version="1.1" id="svg72" sodipodi:docname="boxes-solid.svg" inkscape:version="0.92.4 5da689c313, 2019-01-14">
	<metadata id="metadata78">
		<rdf:RDF>
			<cc:Work rdf:about="">
				<dc:format>image/svg+xml</dc:format>
				<dc:type rdf:resource="http://purl.org/dc/dcmitype/StillImage" />
				<dc:title></dc:title>
			</cc:Work>
		</rdf:RDF>
	</metadata>
	<defs id="defs76" />
	<sodipodi:namedview pagecolor="#ffffff" bordercolor="#666666" borderopacity="1" objecttolerance="10" gridtolerance="10" guidetolerance="10" inkscape:pageopacity="0" inkscape:pageshadow="2" inkscape:window-width="1280" inkscape:window-height="1000" id="namedview74" showgrid="false" inkscape:zoom="22.3125" inkscape:cx="2.8199675" inkscape:cy="13.073487" inkscape:window-x="0" inkscape:window-y="24" inkscape:window-maximized="1" inkscape:current-layer="svg72" units="in" scale-x="10" />
	<g transform="matrix(11.017334,0,0,12.167498,2.4516697,9.4522429)" id="g70" style="fill:none;fill-rule:evenodd" inkscape:label="g70">
		<path d="m 0.01087,0.5 0.5,-0.5 h 4.99626 l 0.35355,0.14645 0.85281,0.8528 h 6.78761 l 0.5,0.5 v 5.49587 l -0.0108,0.01087 v 4.49611 l -0.5,0.5 H 0.5 L 0,11.5021 V 4.50735 L 0.01087,4.49648 Z m 13.303955,1.2975693 0.02241,1.4744483 H 6.7469996 L 6.0573141,3.4408765 5.28915,4.2314396 0.67473555,4.3210755 0.69714451,0.68627451 H 5.30002 L 6.1976479,1.6511193 6.8425145,1.8199783 Z M 5.49626,5.00735 0.7643714,5.029759 C 0.71834032,7.1474799 0.711207,9.4343298 0.7535014,11.22619 l 12.6177506,0.04482 c -0.05625,-2.3703151 0.01219,-5.1309214 -0.04482,-7.2679 H 6.70761 L 5.84981,4.8609 Z" id="path64" inkscape:connector-curvature="0" style="fill:#979797" sodipodi:nodetypes="ccccccccccccccccccccccccccccccccccc" />
		<path d="m 5.5,7.5 -1,1 m 1,1 -1,-1" id="path66" inkscape:connector-curvature="0" style="stroke:#979797;stroke-linecap:square" />
		<path d="m 9.5,7.5 -1,1 m 1,1 -1,-1" transform="matrix(-1,0,0,1,18,0)" id="path68" inkscape:connector-curvature="0" style="stroke:#979797;stroke-linecap:square" />
	</g>
	<path shape-rendering="crispEdges" style="fill:none;stroke:#979797;stroke-width:3px;stroke-linecap:butt;stroke-linejoin:miter;stroke-opacity:1" d="M 7.2351066,14.019315 62.537804,13.746654 74.141495,26.561723 152.1578,26.289062 153.39224,150.34982 H 6.9882191 Z" id="path3783" inkscape:connector-curvature="0" />
	<path shape-rendering="crispEdges" style="fill:none;stroke:#979797;stroke-width:3px;stroke-linecap:butt;stroke-linejoin:miter;stroke-opacity:1" d="M 6.2475579,66.915554 62.290916,66.642892 74.141495,53.555164 h 77.275645 v 0" id="path3785" inkscape:connector-curvature="0" />
</svg>
